# xmcd
#
# Track frame offsets:
#        150
#        18715
#        36618
#        52789
#        72755
#        94058
#        122384
#        145623
#        173050
#        194673
#        211112
#        232075
#
# Disc length: 3391 seconds
#
# Revision: 0
# Processed by: cddbd v1.5.1PL0 Copyright (c) Steve Scherf et al.
# Submitted via: ExactAudioCopy v0.95a5
#
DISCID=a50d3d0c
DTITLE=Dona Summer - Dona Summer
DYEAR=1900
DGENRE=Pop
TTITLE0=Once Upon A Time
TTITLE1=Macarthur Park
TTITLE2=Faster And Faster To Nowhere
TTITLE3=Fairy Tale High
TTITLE4=Say Something Nice
TTITLE5=Now I Need You
TTITLE6=Working the Midnight Shift
TTITLE7=Queen For A Day
TTITLE8=If You Got It Flaunt It
TTITLE9=A Man Like You
TTITLE10=Sweet Romance
TTITLE11=Rumour Has It
EXTD=
EXTT0=
EXTT1=
EXTT2=
EXTT3=
EXTT4=
EXTT5=
EXTT6=
EXTT7=
EXTT8=
EXTT9=
EXTT10=
EXTT11=
PLAYORDER=
